<svg width="846.1575195312499px" height="220.430029296875px" xmlns="http://www.w3.org/2000/svg" viewBox="-173.07875976562497 -35.2150146484375 846.1575195312499 220.430029296875" style="background: rgb(73, 18, 18);" preserveAspectRatio="xMidYMid"><defs><linearGradient id="editing-glowing-gradient" x1="0.8146601955249185" x2="0.18533980447508147" y1="0.8885729807284856" y2="0.11142701927151444"><stop offset="0" stop-color="#831a19"></stop><stop offset="1" stop-color="#c24229"></stop></linearGradient><filter id="editing-glowing" x="-100%" y="-100%" width="300%" height="300%"><feGaussianBlur in="SourceGraphic" result="blur" stdDeviation="10"></feGaussianBlur><feMerge><feMergeNode in="blur"></feMergeNode><feMergeNode in="SourceGraphic"></feMergeNode></feMerge></filter></defs><g filter="url(#editing-glowing)"><g transform="translate(-53.77437376976013, 133.59000396728516)"><path d="M83.92-52.29L83.92-52.29L83.92-52.29Q83.92 1.39 25.70 1.39L25.70 1.39L25.70 1.39Q16.38 1.39 1.01-0.88L1.01-0.88L15.12-75.35L15.12-75.35Q16.13-80.39 16.76-83.29L16.76-83.29L16.76-83.29Q35.91-84.67 44.41-84.67L44.41-84.67L44.41-84.67Q52.92-84.67 60.73-82.91L60.73-82.91L60.73-82.91Q68.54-81.14 73.71-77.24L73.71-77.24L73.71-77.24Q83.92-69.55 83.92-52.29ZM57.96-56.95L57.96-56.95L57.96-56.95Q57.96-75.73 44.48-75.73L44.48-75.73L43.22-75.73L43.22-75.73Q42.59-75.73 41.96-75.60L41.96-75.60L28.98-7.94L28.98-7.94Q29.48-7.69 29.99-7.69L29.99-7.69L31.00-7.69L31.00-7.69Q35.66-7.69 40.51-10.58L40.51-10.58L40.51-10.58Q45.36-13.48 49.14-19.40L49.14-19.40L49.14-19.40Q57.96-33.14 57.96-56.95ZM95.82-3.78L95.82-3.78L95.82-3.78Q92.86-7.06 91.54-12.22L91.54-12.22L91.54-12.22Q90.22-17.39 90.22-25.83L90.22-25.83L90.22-25.83Q90.22-34.27 93.11-41.96L93.11-41.96L93.11-41.96Q96.01-49.64 101.30-55.19L101.30-55.19L101.30-55.19Q112.14-66.78 130.03-66.78L130.03-66.78L130.03-66.78Q136.46-66.78 141.12-64.64L141.12-64.64L162.67-66.78L153.34-17.64L153.34-17.64Q152.96-16.13 152.96-13.36L152.96-13.36L152.96-13.36Q152.96-10.58 154.67-8.82L154.67-8.82L154.67-8.82Q156.37-7.06 158.89-6.80L158.89-6.80L158.89-6.80Q157.63-2.52 153.03 0L153.03 0L153.03 0Q148.43 2.52 143.26 2.52L143.26 2.52L143.26 2.52Q138.10 2.52 134.63 0.57L134.63 0.57L134.63 0.57Q131.17-1.39 130.16-4.66L130.16-4.66L130.16-4.66Q128.14-1.51 123.86 0.50L123.86 0.50L123.86 0.50Q119.57 2.52 113.84 2.52L113.84 2.52L113.84 2.52Q108.11 2.52 103.45 1.01L103.45 1.01L103.45 1.01Q98.78-0.50 95.82-3.78ZM122.41-54.94L122.41-54.94L122.41-54.94Q120.96-52.67 119.70-48.83L119.70-48.83L119.70-48.83Q118.44-44.98 116.36-34.71L116.36-34.71L116.36-34.71Q114.28-24.44 114.28-17.14L114.28-17.14L114.28-17.14Q114.28-9.83 115.42-7.69L115.42-7.69L115.42-7.69Q116.55-5.54 118.57-5.54L118.57-5.54L118.57-5.54Q122.60-5.54 125.56-9.39L125.56-9.39L125.56-9.39Q128.52-13.23 129.65-20.03L129.65-20.03L136.33-56.95L136.33-56.95Q133.69-59.22 130.60-59.22L130.60-59.22L130.60-59.22Q127.51-59.22 125.69-58.21L125.69-58.21L125.69-58.21Q123.86-57.20 122.41-54.94ZM228.19-8.63L228.19-8.63L228.19-8.63Q222.89-3.28 215.65-0.38L215.65-0.38L215.65-0.38Q208.40 2.52 201.22 2.52L201.22 2.52L201.22 2.52Q194.04 2.52 191.52 1.26L191.52 1.26L187.61 22.68L162.04 25.20L179.42-64.26L199.96-66.40L198.32-57.71L198.32-57.71Q203.62-66.65 214.58-66.65L214.58-66.65L214.58-66.65Q226.93-66.65 233.48-58.72L233.48-58.72L233.48-58.72Q239.27-51.53 239.27-40.57L239.27-40.57L239.27-40.57Q239.27-29.61 236.38-21.80L236.38-21.80L236.38-21.80Q233.48-13.99 228.19-8.63ZM199.71-43.97L193.03-7.06L193.03-7.06Q195.68-4.79 198.95-4.79L198.95-4.79L198.95-4.79Q202.23-4.79 204.12-6.05L204.12-6.05L204.12-6.05Q206.01-7.31 207.40-9.83L207.40-9.83L207.40-9.83Q211.18-16.63 214.20-37.30L214.20-37.30L214.20-37.30Q215.08-43.34 215.08-49.27L215.08-49.27L215.08-49.27Q215.08-55.19 213.76-57.08L213.76-57.08L213.76-57.08Q212.44-58.97 209.92-58.97L209.92-58.97L209.92-58.97Q202.23-58.97 199.71-43.97L199.71-43.97ZM305.55-8.63L305.55-8.63L305.55-8.63Q300.26-3.28 293.01-0.38L293.01-0.38L293.01-0.38Q285.77 2.52 278.59 2.52L278.59 2.52L278.59 2.52Q271.40 2.52 268.88 1.26L268.88 1.26L264.98 22.68L239.40 25.20L256.79-64.26L277.33-66.40L275.69-57.71L275.69-57.71Q280.98-66.65 291.94-66.65L291.94-66.65L291.94-66.65Q304.29-66.65 310.84-58.72L310.84-58.72L310.84-58.72Q316.64-51.53 316.64-40.57L316.64-40.57L316.64-40.57Q316.64-29.61 313.74-21.80L313.74-21.80L313.74-21.80Q310.84-13.99 305.55-8.63ZM277.07-43.97L270.40-7.06L270.40-7.06Q273.04-4.79 276.32-4.79L276.32-4.79L276.32-4.79Q279.59-4.79 281.48-6.05L281.48-6.05L281.48-6.05Q283.37-7.31 284.76-9.83L284.76-9.83L284.76-9.83Q288.54-16.63 291.56-37.30L291.56-37.30L291.56-37.30Q292.45-43.34 292.45-49.27L292.45-49.27L292.45-49.27Q292.45-55.19 291.12-57.08L291.12-57.08L291.12-57.08Q289.80-58.97 287.28-58.97L287.28-58.97L287.28-58.97Q279.59-58.97 277.07-43.97L277.07-43.97ZM320.42-7.43L320.42-7.43L320.42-7.43Q320.42-12.22 324.14-14.87L324.14-14.87L324.14-14.87Q327.85-17.51 333.14-17.51L333.14-17.51L333.14-17.51Q338.44-17.51 341.65-14.87L341.65-14.87L341.65-14.87Q344.86-12.22 344.86-7.43L344.86-7.43L344.86-7.43Q344.86-2.65 341.27-0.06L341.27-0.06L341.27-0.06Q337.68 2.52 332.39 2.52L332.39 2.52L332.39 2.52Q327.10 2.52 323.76-0.06L323.76-0.06L323.76-0.06Q320.42-2.65 320.42-7.43ZM413.91-66.78L413.91-66.78L413.91-66.78Q403.70-66.78 396.27-70.18L396.27-70.18L392.24-49.77L416.56-49.77L416.56-49.77Q416.56-43.09 413.22-38.87L413.22-38.87L413.22-38.87Q409.88-34.65 403.83-34.65L403.83-34.65L403.83-34.65Q397.28-34.65 391.23-37.04L391.23-37.04L391.23-37.04Q389.97-37.55 389.84-37.67L389.84-37.67L382.66 0L355.19 0L371.20-83.16L427.39-83.16L427.39-83.16Q427.39-75.47 423.80-71.13L423.80-71.13L423.80-71.13Q420.21-66.78 413.91-66.78ZM428.84-3.78L428.84-3.78L428.84-3.78Q425.88-7.06 424.56-12.22L424.56-12.22L424.56-12.22Q423.23-17.39 423.23-25.83L423.23-25.83L423.23-25.83Q423.23-34.27 426.13-41.96L426.13-41.96L426.13-41.96Q429.03-49.64 434.32-55.19L434.32-55.19L434.32-55.19Q445.16-66.78 463.05-66.78L463.05-66.78L463.05-66.78Q469.48-66.78 474.14-64.64L474.14-64.64L495.68-66.78L486.36-17.64L486.36-17.64Q485.98-16.13 485.98-13.36L485.98-13.36L485.98-13.36Q485.98-10.58 487.68-8.82L487.68-8.82L487.68-8.82Q489.38-7.06 491.90-6.80L491.90-6.80L491.90-6.80Q490.64-2.52 486.05 0L486.05 0L486.05 0Q481.45 2.52 476.28 2.52L476.28 2.52L476.28 2.52Q471.11 2.52 467.65 0.57L467.65 0.57L467.65 0.57Q464.18-1.39 463.18-4.66L463.18-4.66L463.18-4.66Q461.16-1.51 456.88 0.50L456.88 0.50L456.88 0.50Q452.59 2.52 446.86 2.52L446.86 2.52L446.86 2.52Q441.13 2.52 436.46 1.01L436.46 1.01L436.46 1.01Q431.80-0.50 428.84-3.78ZM455.43-54.94L455.43-54.94L455.43-54.94Q453.98-52.67 452.72-48.83L452.72-48.83L452.72-48.83Q451.46-44.98 449.38-34.71L449.38-34.71L449.38-34.71Q447.30-24.44 447.30-17.14L447.30-17.14L447.30-17.14Q447.30-9.83 448.43-7.69L448.43-7.69L448.43-7.69Q449.57-5.54 451.58-5.54L451.58-5.54L451.58-5.54Q455.62-5.54 458.58-9.39L458.58-9.39L458.58-9.39Q461.54-13.23 462.67-20.03L462.67-20.03L469.35-56.95L469.35-56.95Q466.70-59.22 463.62-59.22L463.62-59.22L463.62-59.22Q460.53-59.22 458.70-58.21L458.70-58.21L458.70-58.21Q456.88-57.20 455.43-54.94ZM532.73-6.93L532.73-6.93L532.73-6.93Q528.82 2.52 516.35 2.52L516.35 2.52L516.35 2.52Q509.92 2.52 505.89-1.89L505.89-1.89L505.89-1.89Q502.49-5.80 502.49-9.70L502.49-9.70L502.49-9.70Q502.49-19.91 507.15-39.82L507.15-39.82L511.81-64.26L537.39-66.78L529.70-26.96L529.70-26.96Q527.56-17.64 527.56-14.36L527.56-14.36L527.56-14.36Q527.56-7.18 532.73-6.93ZM514.08-81.77L514.08-81.77L514.08-81.77Q514.08-86.69 518.17-89.33L518.17-89.33L518.17-89.33Q522.27-91.98 528.19-91.98L528.19-91.98L528.19-91.98Q534.11-91.98 537.71-89.33L537.71-89.33L537.71-89.33Q541.30-86.69 541.30-81.77L541.30-81.77L541.30-81.77Q541.30-76.86 537.33-74.34L537.33-74.34L537.33-74.34Q533.36-71.82 527.44-71.82L527.44-71.82L527.44-71.82Q521.51-71.82 517.80-74.34L517.80-74.34L517.80-74.34Q514.08-76.86 514.08-81.77ZM582.88-35.41L582.88-35.41L582.88-35.41Q587.41-43.47 587.41-51.66L587.41-51.66L587.41-51.66Q587.41-57.08 583.51-57.08L583.51-57.08L583.51-57.08Q580.48-57.08 577.33-51.91L577.33-51.91L577.33-51.91Q574.06-46.75 573.05-40.07L573.05-40.07L566.50 0L540.41 2.52L553.27-64.26L574.06-66.78L571.79-54.05L571.79-54.05Q577.96-66.78 591.82-66.78L591.82-66.78L591.82-66.78Q599.13-66.78 603.10-63L603.10-63L603.10-63Q607.07-59.22 607.07-51.47L607.07-51.47L607.07-51.47Q607.07-43.72 601.97-38.81L601.97-38.81L601.97-38.81Q596.86-33.89 588.17-33.89L588.17-33.89L588.17-33.89Q584.39-33.89 582.88-35.41Z" fill="url(#editing-glowing-gradient)"></path></g></g><style>text {
  font-size: 64px;
  font-family: Arial Black;
  dominant-baseline: central;
  text-anchor: middle;
}</style></svg>