<svg width="1033.4125244140623px" height="121.6174835205078px" xmlns="http://www.w3.org/2000/svg" viewBox="-266.70626220703116 14.191258239746098 1033.4125244140623 121.6174835205078" style="background:#051103" preserveAspectRatio="xMidYMid"><defs><linearGradient id="editing-glowing-gradient" x1="0.8146601955249185" x2="0.18533980447508147" y1="0.8885729807284856" y2="0.11142701927151444"><stop offset="0" stop-color="#67ff43"></stop><stop offset="1" stop-color="#90ffff"></stop></linearGradient><filter id="editing-glowing" x="-100%" y="-100%" width="300%" height="300%"><feGaussianBlur in="SourceGraphic" result="blur" stdDeviation="10"></feGaussianBlur><feMerge><feMergeNode in="blur"></feMergeNode><feMergeNode in="SourceGraphic"></feMergeNode></feMerge></filter></defs><g filter="url(#editing-glowing)"><g transform="translate(-122.22499632835388, 104.47000122070312)"><path d="M28.42-9.86L28.42-9.86L28.42-9.86Q29.63-8.32 29.63-5.82L29.63-5.82L29.63-5.82Q29.63-2.37 27.07-0.54L27.07-0.54L27.07-0.54Q24.51 1.28 20.48 1.28L20.48 1.28L20.48 1.28Q18.18 1.28 14.66 0.77L14.66 0.77L14.66 0.77Q7.74-0.32 5.63-0.32L5.63-0.32L5.63-0.32Q3.52-0.32 2.69-0.22L2.69-0.22L2.69-0.22Q1.86-0.13 0.51 0L0.51 0L8.38-42.24L35.97-42.24L35.97-42.24Q35.97-38.34 34.08-36.29L34.08-36.29L34.08-36.29Q32.19-34.24 28.48-34.24L28.48-34.24L28.48-34.24Q24.77-34.24 20.99-35.97L20.99-35.97L19.01-24.77L30.40-24.77L30.40-24.77Q30.40-21.38 28.74-19.49L28.74-19.49L28.74-19.49Q27.07-17.60 24.29-17.60L24.29-17.60L24.29-17.60Q21.50-17.60 19.78-18.24L19.78-18.24L19.78-18.24Q18.05-18.88 17.86-19.07L17.86-19.07L15.55-6.98L15.55-6.98Q17.09-6.78 19.97-6.78L19.97-6.78L19.97-6.78Q24.90-6.78 28.42-9.86ZM36.54-6.40L36.54-6.40L36.54-6.40Q36.54-8.13 37.44-12.48L37.44-12.48L40.83-29.76L37.06-29.76L37.31-31.68L37.31-31.68Q44.99-33.98 52.42-39.62L52.42-39.62L55.49-39.62L53.95-32.64L58.94-32.64L58.37-29.76L53.44-29.76L50.18-12.48L50.18-12.48Q49.34-8.51 49.34-7.17L49.34-7.17L49.34-7.17Q49.34-4.10 52.03-3.46L52.03-3.46L52.03-3.46Q51.39-1.28 49.09 0L49.09 0L49.09 0Q46.78 1.28 43.52 1.28L43.52 1.28L43.52 1.28Q40.26 1.28 38.40-0.77L38.40-0.77L38.40-0.77Q36.54-2.82 36.54-6.40ZM90.82-7.10L90.82-7.10L90.82-7.10Q90.82-4.29 93.70-3.46L93.70-3.46L93.70-3.46Q92.99-1.09 90.24 0.19L90.24 0.19L90.24 0.19Q87.94 1.28 85.41 1.28L85.41 1.28L85.41 1.28Q82.88 1.28 81.57 0.61L81.57 0.61L81.57 0.61Q80.26-0.06 79.55-1.15L79.55-1.15L79.55-1.15Q78.40-2.82 78.40-5.95L78.40-5.95L78.40-5.95Q78.40-7.81 79.42-12.93L79.42-12.93L80.32-17.79L80.32-17.79Q81.41-23.36 81.41-25.41L81.41-25.41L81.41-25.41Q81.41-28.99 79.42-28.99L79.42-28.99L79.42-28.99Q76.93-28.99 75.33-25.34L75.33-25.34L75.33-25.34Q74.69-23.94 74.24-21.82L74.24-21.82L69.89 0L57.02 1.28L66.05-44.80L78.91-46.08L78.40-43.52L78.40-43.52Q76.61-33.66 75.07-30.34L75.07-30.34L75.07-30.34Q78.66-33.92 85.25-33.92L85.25-33.92L85.25-33.92Q92.22-33.92 93.50-29.31L93.50-29.31L93.50-29.31Q93.95-27.84 93.95-26.56L93.95-26.56L93.95-26.56Q93.95-25.28 93.86-24.29L93.86-24.29L93.86-24.29Q93.76-23.30 93.44-21.50L93.44-21.50L92.61-16.90L91.14-9.66L91.14-9.66Q90.82-8.19 90.82-7.10ZM124.80-10.82L124.80-10.82L124.80-10.82Q126.40-9.73 126.40-7.33L126.40-7.33L126.40-7.33Q126.40-4.93 125.18-3.39L125.18-3.39L125.18-3.39Q123.97-1.86 121.98-0.83L121.98-0.83L121.98-0.83Q117.89 1.28 113.47 1.28L113.47 1.28L113.47 1.28Q109.06 1.28 106.46 0.32L106.46 0.32L106.46 0.32Q103.87-0.64 102.14-2.43L102.14-2.43L102.14-2.43Q98.75-5.82 98.75-12.03L98.75-12.03L98.75-12.03Q98.75-21.70 104-27.58L104-27.58L104-27.58Q109.63-33.92 119.42-33.92L119.42-33.92L119.42-33.92Q125.50-33.92 128.51-31.36L128.51-31.36L128.51-31.36Q130.75-29.44 130.75-26.30L130.75-26.30L130.75-26.30Q130.75-15.04 111.30-15.04L111.30-15.04L111.30-15.04Q111.04-13.38 111.04-11.97L111.04-11.97L111.04-11.97Q111.04-9.02 112.35-7.90L112.35-7.90L112.35-7.90Q113.66-6.78 116.10-6.78L116.10-6.78L116.10-6.78Q118.53-6.78 121.12-7.90L121.12-7.90L121.12-7.90Q123.71-9.02 124.80-10.82ZM111.74-17.79L111.74-17.79L111.74-17.79Q116.29-17.79 118.91-20.61L118.91-20.61L118.91-20.61Q121.54-23.30 121.54-27.58L121.54-27.58L121.54-27.58Q121.54-29.06 120.99-29.86L120.99-29.86L120.99-29.86Q120.45-30.66 119.36-30.66L119.36-30.66L119.36-30.66Q118.27-30.66 117.34-30.24L117.34-30.24L117.34-30.24Q116.42-29.82 115.46-28.42L115.46-28.42L115.46-28.42Q113.09-25.22 111.74-17.79ZM152.96-17.98L152.96-17.98L152.96-17.98Q155.26-22.08 155.26-26.24L155.26-26.24L155.26-26.24Q155.26-28.99 153.28-28.99L153.28-28.99L153.28-28.99Q151.74-28.99 150.14-26.37L150.14-26.37L150.14-26.37Q148.48-23.74 147.97-20.35L147.97-20.35L144.64 0L131.39 1.28L137.92-32.64L148.48-33.92L147.33-27.46L147.33-27.46Q150.46-33.92 157.50-33.92L157.50-33.92L157.50-33.92Q161.22-33.92 163.23-32L163.23-32L163.23-32Q165.25-30.08 165.25-26.14L165.25-26.14L165.25-26.14Q165.25-22.21 162.66-19.71L162.66-19.71L162.66-19.71Q160.06-17.22 155.65-17.22L155.65-17.22L155.65-17.22Q153.73-17.22 152.96-17.98ZM192.19-10.82L192.19-10.82L192.19-10.82Q193.79-9.73 193.79-7.33L193.79-7.33L193.79-7.33Q193.79-4.93 192.58-3.39L192.58-3.39L192.58-3.39Q191.36-1.86 189.38-0.83L189.38-0.83L189.38-0.83Q185.28 1.28 180.86 1.28L180.86 1.28L180.86 1.28Q176.45 1.28 173.86 0.32L173.86 0.32L173.86 0.32Q171.26-0.64 169.54-2.43L169.54-2.43L169.54-2.43Q166.14-5.82 166.14-12.03L166.14-12.03L166.14-12.03Q166.14-21.70 171.39-27.58L171.39-27.58L171.39-27.58Q177.02-33.92 186.82-33.92L186.82-33.92L186.82-33.92Q192.90-33.92 195.90-31.36L195.90-31.36L195.90-31.36Q198.14-29.44 198.14-26.30L198.14-26.30L198.14-26.30Q198.14-15.04 178.69-15.04L178.69-15.04L178.69-15.04Q178.43-13.38 178.43-11.97L178.43-11.97L178.43-11.97Q178.43-9.02 179.74-7.90L179.74-7.90L179.74-7.90Q181.06-6.78 183.49-6.78L183.49-6.78L183.49-6.78Q185.92-6.78 188.51-7.90L188.51-7.90L188.51-7.90Q191.10-9.02 192.19-10.82ZM179.14-17.79L179.14-17.79L179.14-17.79Q183.68-17.79 186.30-20.61L186.30-20.61L186.30-20.61Q188.93-23.30 188.93-27.58L188.93-27.58L188.93-27.58Q188.93-29.06 188.38-29.86L188.38-29.86L188.38-29.86Q187.84-30.66 186.75-30.66L186.75-30.66L186.75-30.66Q185.66-30.66 184.74-30.24L184.74-30.24L184.74-30.24Q183.81-29.82 182.85-28.42L182.85-28.42L182.85-28.42Q180.48-25.22 179.14-17.79ZM220.86-2.69L220.86-2.69L220.86-2.69Q217.79 1.28 210.18 1.28L210.18 1.28L210.18 1.28Q206.21 1.28 203.33-1.12L203.33-1.12L203.33-1.12Q200.45-3.52 200.45-6.98L200.45-6.98L200.45-6.98Q200.45-8.90 200.64-9.86L200.64-9.86L204.93-32.64L217.92-33.92L213.25-9.22L213.25-9.22Q212.99-7.81 212.99-6.98L212.99-6.98L212.99-6.98Q212.99-3.26 215.23-3.26L215.23-3.26L215.23-3.26Q217.73-3.26 219.52-6.66L219.52-6.66L219.52-6.66Q220.10-7.74 220.35-9.15L220.35-9.15L224.90-32.64L237.50-33.92L232.77-8.96L232.77-8.96Q232.58-8 232.58-6.98L232.58-6.98L232.58-6.98Q232.58-5.95 233.15-4.83L233.15-4.83L233.15-4.83Q233.73-3.71 235.58-3.46L235.58-3.46L235.58-3.46Q235.20-1.92 233.86-0.90L233.86-0.90L233.86-0.90Q231.04 1.28 228 1.28L228 1.28L228 1.28Q224.96 1.28 223.17 0.19L223.17 0.19L223.17 0.19Q221.38-0.90 220.86-2.69ZM287.04 1.28L287.04 1.28L287.04 1.28Q279.30 1.28 279.30-4.74L279.30-4.74L279.30-4.74Q279.30-7.36 280.42-12.45L280.42-12.45L280.42-12.45Q281.54-17.54 281.92-19.58L281.92-19.58L281.92-19.58Q282.82-24.26 282.82-25.73L282.82-25.73L282.82-25.73Q282.82-28.99 280.38-28.99L280.38-28.99L280.38-28.99Q278.78-28.99 277.25-26.78L277.25-26.78L277.25-26.78Q275.71-24.58 275.01-20.16L275.01-20.16L271.04 0L258.56 1.28L262.02-16.13L262.02-16.13Q262.59-19.01 263.10-22.27L263.10-22.27L263.10-22.27Q263.62-25.54 263.62-26.05L263.62-26.05L263.62-26.05Q263.62-28.99 261.44-28.99L261.44-28.99L261.44-28.99Q259.97-28.99 258.37-26.82L258.37-26.82L258.37-26.82Q256.77-24.64 255.87-20.16L255.87-20.16L251.97 0L239.36 1.28L246.08-32.64L256.51-33.92L255.42-27.46L255.42-27.46Q257.09-30.91 260.16-32.42L260.16-32.42L260.16-32.42Q263.23-33.92 268.03-33.92L268.03-33.92L268.03-33.92Q270.78-33.92 272.58-32.58L272.58-32.58L272.58-32.58Q274.37-31.23 274.94-29.06L274.94-29.06L274.94-29.06Q276.03-31.30 278.82-32.61L278.82-32.61L278.82-32.61Q281.60-33.92 285.02-33.92L285.02-33.92L285.02-33.92Q288.45-33.92 290.14-33.18L290.14-33.18L290.14-33.18Q291.84-32.45 292.86-31.23L292.86-31.23L292.86-31.23Q294.59-28.99 294.59-24.90L294.59-24.90L294.59-24.90Q294.59-20.86 292.86-12.48L292.86-12.48L292.86-12.48Q291.97-8.38 291.97-6.88L291.97-6.88L291.97-6.88Q291.97-5.38 292.83-4.48L292.83-4.48L292.83-4.48Q293.70-3.58 294.98-3.46L294.98-3.46L294.98-3.46Q294.34-1.28 292.13 0L292.13 0L292.13 0Q289.92 1.28 287.04 1.28ZM338.05-29.57L338.05-29.57L338.05-29.57Q339.01-31.49 339.01-33.28L339.01-33.28L339.01-33.28Q339.01-35.07 338.82-36.06L338.82-36.06L338.82-36.06Q338.62-37.06 338.18-37.82L338.18-37.82L338.18-37.82Q337.22-39.49 335.30-39.49L335.30-39.49L335.30-39.49Q332.93-39.49 331.01-37.76L331.01-37.76L331.01-37.76Q328.96-35.97 328.96-33.15L328.96-33.15L328.96-33.15Q328.96-31.36 330.21-29.98L330.21-29.98L330.21-29.98Q331.46-28.61 333.38-27.33L333.38-27.33L333.38-27.33Q335.30-26.05 337.47-24.77L337.47-24.77L337.47-24.77Q339.65-23.49 341.57-21.95L341.57-21.95L341.57-21.95Q345.98-18.43 345.98-13.70L345.98-13.70L345.98-13.70Q345.98-10.50 344.29-7.78L344.29-7.78L344.29-7.78Q342.59-5.06 339.78-3.07L339.78-3.07L339.78-3.07Q333.63 1.28 325.50 1.28L325.50 1.28L325.50 1.28Q318.91 1.28 315.52-0.86L315.52-0.86L315.52-0.86Q312.13-3.01 312.13-6.27L312.13-6.27L312.13-6.27Q312.13-12.10 316.67-13.57L316.67-13.57L316.67-13.57Q317.95-14.02 319.90-14.02L319.90-14.02L319.90-14.02Q321.86-14.02 324.10-13.18L324.10-13.18L324.10-13.18Q323.07-10.56 323.07-8.19L323.07-8.19L323.07-8.19Q323.07-3.07 326.72-3.07L326.72-3.07L326.72-3.07Q329.09-3.07 331.04-4.80L331.04-4.80L331.04-4.80Q332.99-6.53 332.99-8.48L332.99-8.48L332.99-8.48Q332.99-10.43 331.74-11.84L331.74-11.84L331.74-11.84Q330.50-13.25 328.64-14.37L328.64-14.37L328.64-14.37Q326.78-15.49 324.64-16.58L324.64-16.58L324.64-16.58Q322.50-17.66 320.64-19.20L320.64-19.20L320.64-19.20Q316.29-22.72 316.29-28.35L316.29-28.35L316.29-28.35Q316.29-32 318.08-34.85L318.08-34.85L318.08-34.85Q319.87-37.70 322.75-39.62L322.75-39.62L322.75-39.62Q328.51-43.52 335.58-43.52L335.58-43.52L335.58-43.52Q342.66-43.52 346.08-41.41L346.08-41.41L346.08-41.41Q349.50-39.30 349.50-35.71L349.50-35.71L349.50-35.71Q349.50-32.58 347.07-30.59L347.07-30.59L347.07-30.59Q344.96-28.93 342.40-28.93L342.40-28.93L342.40-28.93Q339.84-28.93 338.05-29.57ZM371.39-2.69L371.39-2.69L371.39-2.69Q368.32 1.28 360.70 1.28L360.70 1.28L360.70 1.28Q356.74 1.28 353.86-1.12L353.86-1.12L353.86-1.12Q350.98-3.52 350.98-6.98L350.98-6.98L350.98-6.98Q350.98-8.90 351.17-9.86L351.17-9.86L355.46-32.64L368.45-33.92L363.78-9.22L363.78-9.22Q363.52-7.81 363.52-6.98L363.52-6.98L363.52-6.98Q363.52-3.26 365.76-3.26L365.76-3.26L365.76-3.26Q368.26-3.26 370.05-6.66L370.05-6.66L370.05-6.66Q370.62-7.74 370.88-9.15L370.88-9.15L375.42-32.64L388.03-33.92L383.30-8.96L383.30-8.96Q383.10-8 383.10-6.98L383.10-6.98L383.10-6.98Q383.10-5.95 383.68-4.83L383.68-4.83L383.68-4.83Q384.26-3.71 386.11-3.46L386.11-3.46L386.11-3.46Q385.73-1.92 384.38-0.90L384.38-0.90L384.38-0.90Q381.57 1.28 378.53 1.28L378.53 1.28L378.53 1.28Q375.49 1.28 373.70 0.19L373.70 0.19L373.70 0.19Q371.90-0.90 371.39-2.69ZM421.31-4.38L421.31-4.38L421.31-4.38Q418.62-1.66 414.94-0.19L414.94-0.19L414.94-0.19Q411.26 1.28 407.62 1.28L407.62 1.28L407.62 1.28Q403.97 1.28 402.69 0.64L402.69 0.64L400.70 11.52L387.71 12.80L396.54-32.64L406.98-33.73L406.14-29.31L406.14-29.31Q408.83-33.86 414.40-33.86L414.40-33.86L414.40-33.86Q420.67-33.86 424.00-29.82L424.00-29.82L424.00-29.82Q426.94-26.18 426.94-20.61L426.94-20.61L426.94-20.61Q426.94-15.04 425.47-11.07L425.47-11.07L425.47-11.07Q424.00-7.10 421.31-4.38ZM406.85-22.34L403.46-3.58L403.46-3.58Q404.80-2.43 406.46-2.43L406.46-2.43L406.46-2.43Q408.13-2.43 409.09-3.07L409.09-3.07L409.09-3.07Q410.05-3.71 410.75-4.99L410.75-4.99L410.75-4.99Q412.67-8.45 414.21-18.94L414.21-18.94L414.21-18.94Q414.66-22.02 414.66-25.02L414.66-25.02L414.66-25.02Q414.66-28.03 413.98-28.99L413.98-28.99L413.98-28.99Q413.31-29.95 412.03-29.95L412.03-29.95L412.03-29.95Q408.13-29.95 406.85-22.34L406.85-22.34ZM456.70-10.82L456.70-10.82L456.70-10.82Q458.30-9.73 458.30-7.33L458.30-7.33L458.30-7.33Q458.30-4.93 457.09-3.39L457.09-3.39L457.09-3.39Q455.87-1.86 453.89-0.83L453.89-0.83L453.89-0.83Q449.79 1.28 445.38 1.28L445.38 1.28L445.38 1.28Q440.96 1.28 438.37 0.32L438.37 0.32L438.37 0.32Q435.78-0.64 434.05-2.43L434.05-2.43L434.05-2.43Q430.66-5.82 430.66-12.03L430.66-12.03L430.66-12.03Q430.66-21.70 435.90-27.58L435.90-27.58L435.90-27.58Q441.54-33.92 451.33-33.92L451.33-33.92L451.33-33.92Q457.41-33.92 460.42-31.36L460.42-31.36L460.42-31.36Q462.66-29.44 462.66-26.30L462.66-26.30L462.66-26.30Q462.66-15.04 443.20-15.04L443.20-15.04L443.20-15.04Q442.94-13.38 442.94-11.97L442.94-11.97L442.94-11.97Q442.94-9.02 444.26-7.90L444.26-7.90L444.26-7.90Q445.57-6.78 448-6.78L448-6.78L448-6.78Q450.43-6.78 453.02-7.90L453.02-7.90L453.02-7.90Q455.62-9.02 456.70-10.82ZM443.65-17.79L443.65-17.79L443.65-17.79Q448.19-17.79 450.82-20.61L450.82-20.61L450.82-20.61Q453.44-23.30 453.44-27.58L453.44-27.58L453.44-27.58Q453.44-29.06 452.90-29.86L452.90-29.86L452.90-29.86Q452.35-30.66 451.26-30.66L451.26-30.66L451.26-30.66Q450.18-30.66 449.25-30.24L449.25-30.24L449.25-30.24Q448.32-29.82 447.36-28.42L447.36-28.42L447.36-28.42Q444.99-25.22 443.65-17.79ZM484.86-17.98L484.86-17.98L484.86-17.98Q487.17-22.08 487.17-26.24L487.17-26.24L487.17-26.24Q487.17-28.99 485.18-28.99L485.18-28.99L485.18-28.99Q483.65-28.99 482.05-26.37L482.05-26.37L482.05-26.37Q480.38-23.74 479.87-20.35L479.87-20.35L476.54 0L463.30 1.28L469.82-32.64L480.38-33.92L479.23-27.46L479.23-27.46Q482.37-33.92 489.41-33.92L489.41-33.92L489.41-33.92Q493.12-33.92 495.14-32L495.14-32L495.14-32Q497.15-30.08 497.15-26.14L497.15-26.14L497.15-26.14Q497.15-22.21 494.56-19.71L494.56-19.71L494.56-19.71Q491.97-17.22 487.55-17.22L487.55-17.22L487.55-17.22Q485.63-17.22 484.86-17.98ZM500.54-10.37L500.54-10.37L500.54-10.37Q498.50-11.84 498.50-14.66L498.50-14.66L498.50-14.66Q498.50-16.19 499.26-17.44L499.26-17.44L499.26-17.44Q500.03-18.69 501.57-18.88L501.57-18.88L514.18-18.88L514.18-18.88Q516.29-18.88 516.93-20.16L516.93-20.16L516.93-20.16Q517.95-19.58 518.40-18.37L518.40-18.37L518.40-18.37Q518.85-17.15 518.85-15.87L518.85-15.87L518.85-15.87Q518.85-14.59 517.86-13.34L517.86-13.34L517.86-13.34Q516.86-12.10 515.39-11.97L515.39-11.97L503.68-11.97L503.68-11.97Q502.34-11.97 501.70-11.55L501.70-11.55L501.70-11.55Q501.06-11.14 500.54-10.37ZM550.02-9.86L550.02-9.86L550.02-9.86Q551.23-8.32 551.23-5.34L551.23-5.34L551.23-5.34Q551.23-2.37 548.96-0.54L548.96-0.54L548.96-0.54Q546.69 1.28 542.72 1.28L542.72 1.28L542.72 1.28Q540.42 1.28 536.83 0.77L536.83 0.77L536.83 0.77Q529.79-0.32 527.78-0.32L527.78-0.32L527.78-0.32Q525.76-0.32 524.93-0.22L524.93-0.22L524.93-0.22Q524.10-0.13 522.75 0L522.75 0L530.50-42.24L544.51-42.24L538.11-7.04L538.11-7.04Q538.94-6.91 539.71-6.91L539.71-6.91L541.31-6.91L541.31-6.91Q546.69-6.91 550.02-9.86ZM569.47 1.28L569.47 1.28L569.47 1.28Q555.39 1.28 555.39-11.97L555.39-11.97L555.39-11.97Q555.39-21.38 560.58-27.46L560.58-27.46L560.58-27.46Q566.08-33.92 575.62-33.92L575.62-33.92L575.62-33.92Q582.53-33.92 586.05-30.72L586.05-30.72L586.05-30.72Q589.57-27.52 589.57-20.80L589.57-20.80L589.57-20.80Q589.57-10.56 584.06-4.61L584.06-4.61L584.06-4.61Q578.69 1.28 569.47 1.28ZM571.14-26.56L571.14-26.56L571.14-26.56Q570.37-24.83 569.76-22.24L569.76-22.24L569.76-22.24Q569.15-19.65 568.38-15.55L568.38-15.55L568.38-15.55Q567.62-11.46 567.62-6.40L567.62-6.40L567.62-6.40Q567.62-4.74 568.16-3.65L568.16-3.65L568.16-3.65Q568.70-2.56 570.18-2.56L570.18-2.56L570.18-2.56Q571.65-2.56 572.58-3.26L572.58-3.26L572.58-3.26Q573.50-3.97 574.21-5.63L574.21-5.63L574.21-5.63Q575.49-8.58 576.51-14.05L576.51-14.05L576.51-14.05Q577.54-19.52 577.63-21.89L577.63-21.89L577.63-21.89Q577.73-24.26 577.73-26.02L577.73-26.02L577.73-26.02Q577.73-27.78 577.22-28.93L577.22-28.93L577.22-28.93Q576.70-30.08 575.26-30.08L575.26-30.08L575.26-30.08Q573.82-30.08 572.86-29.18L572.86-29.18L572.86-29.18Q571.90-28.29 571.14-26.56ZM594.37-6.40L594.37-6.40L594.37-6.40Q594.37-8.13 595.26-12.48L595.26-12.48L598.66-29.76L594.88-29.76L595.14-31.68L595.14-31.68Q602.82-33.98 610.24-39.62L610.24-39.62L613.31-39.62L611.78-32.64L616.77-32.64L616.19-29.76L611.26-29.76L608-12.48L608-12.48Q607.17-8.51 607.17-7.17L607.17-7.17L607.17-7.17Q607.17-4.10 609.86-3.46L609.86-3.46L609.86-3.46Q609.22-1.28 606.91 0L606.91 0L606.91 0Q604.61 1.28 601.34 1.28L601.34 1.28L601.34 1.28Q598.08 1.28 596.22-0.77L596.22-0.77L596.22-0.77Q594.37-2.82 594.37-6.40ZM617.47-6.40L617.47-6.40L617.47-6.40Q617.47-8.13 618.37-12.48L618.37-12.48L621.76-29.76L617.98-29.76L618.24-31.68L618.24-31.68Q625.92-33.98 633.34-39.62L633.34-39.62L636.42-39.62L634.88-32.64L639.87-32.64L639.30-29.76L634.37-29.76L631.10-12.48L631.10-12.48Q630.27-8.51 630.27-7.17L630.27-7.17L630.27-7.17Q630.27-4.10 632.96-3.46L632.96-3.46L632.96-3.46Q632.32-1.28 630.02 0L630.02 0L630.02 0Q627.71 1.28 624.45 1.28L624.45 1.28L624.45 1.28Q621.18 1.28 619.33-0.77L619.33-0.77L619.33-0.77Q617.47-2.82 617.47-6.40ZM665.22-10.82L665.22-10.82L665.22-10.82Q666.82-9.73 666.82-7.33L666.82-7.33L666.82-7.33Q666.82-4.93 665.60-3.39L665.60-3.39L665.60-3.39Q664.38-1.86 662.40-0.83L662.40-0.83L662.40-0.83Q658.30 1.28 653.89 1.28L653.89 1.28L653.89 1.28Q649.47 1.28 646.88 0.32L646.88 0.32L646.88 0.32Q644.29-0.64 642.56-2.43L642.56-2.43L642.56-2.43Q639.17-5.82 639.17-12.03L639.17-12.03L639.17-12.03Q639.17-21.70 644.42-27.58L644.42-27.58L644.42-27.58Q650.05-33.92 659.84-33.92L659.84-33.92L659.84-33.92Q665.92-33.92 668.93-31.36L668.93-31.36L668.93-31.36Q671.17-29.44 671.17-26.30L671.17-26.30L671.17-26.30Q671.17-15.04 651.71-15.04L651.71-15.04L651.71-15.04Q651.46-13.38 651.46-11.97L651.46-11.97L651.46-11.97Q651.46-9.02 652.77-7.90L652.77-7.90L652.77-7.90Q654.08-6.78 656.51-6.78L656.51-6.78L656.51-6.78Q658.94-6.78 661.54-7.90L661.54-7.90L661.54-7.90Q664.13-9.02 665.22-10.82ZM652.16-17.79L652.16-17.79L652.16-17.79Q656.70-17.79 659.33-20.61L659.33-20.61L659.33-20.61Q661.95-23.30 661.95-27.58L661.95-27.58L661.95-27.58Q661.95-29.06 661.41-29.86L661.41-29.86L661.41-29.86Q660.86-30.66 659.78-30.66L659.78-30.66L659.78-30.66Q658.69-30.66 657.76-30.24L657.76-30.24L657.76-30.24Q656.83-29.82 655.87-28.42L655.87-28.42L655.87-28.42Q653.50-25.22 652.16-17.79ZM693.38-17.98L693.38-17.98L693.38-17.98Q695.68-22.08 695.68-26.24L695.68-26.24L695.68-26.24Q695.68-28.99 693.70-28.99L693.70-28.99L693.70-28.99Q692.16-28.99 690.56-26.37L690.56-26.37L690.56-26.37Q688.90-23.74 688.38-20.35L688.38-20.35L685.06 0L671.81 1.28L678.34-32.64L688.90-33.92L687.74-27.46L687.74-27.46Q690.88-33.92 697.92-33.92L697.92-33.92L697.92-33.92Q701.63-33.92 703.65-32L703.65-32L703.65-32Q705.66-30.08 705.66-26.14L705.66-26.14L705.66-26.14Q705.66-22.21 703.07-19.71L703.07-19.71L703.07-19.71Q700.48-17.22 696.06-17.22L696.06-17.22L696.06-17.22Q694.14-17.22 693.38-17.98ZM727.04-7.23L727.04-7.23L727.04-7.23Q723.71-3.78 717.63-3.78L717.63-3.78L717.63-3.78Q710.02-3.78 708.42-9.34L708.42-9.34L708.42-9.34Q707.90-11.01 707.90-12.86L707.90-12.86L707.90-12.86Q707.90-14.72 708.29-16.64L708.29-16.64L711.30-32.64L724.29-33.92L720.77-15.30L720.77-15.30Q720.64-14.46 720.45-13.57L720.45-13.57L720.45-13.57Q720.26-12.67 720.26-11.74L720.26-11.74L720.26-11.74Q720.26-10.82 720.58-10.21L720.58-10.21L720.58-10.21Q720.90-9.60 721.34-9.22L721.34-9.22L721.34-9.22Q722.11-8.70 723.49-8.70L723.49-8.70L723.49-8.70Q724.86-8.70 726.05-10.37L726.05-10.37L726.05-10.37Q727.23-12.03 727.81-14.91L727.81-14.91L731.33-32.64L743.94-33.92L739.14-8.77L739.14-8.77Q736.77 3.52 731.90 8.38L731.90 8.38L731.90 8.38Q729.41 10.88 726.18 11.87L726.18 11.87L726.18 11.87Q722.94 12.86 718.78 12.86L718.78 12.86L718.78 12.86Q712.06 12.86 708.22 10.75L708.22 10.75L708.22 10.75Q704.38 8.64 704.38 5.12L704.38 5.12L704.38 5.12Q704.38 2.50 706.37 0.99L706.37 0.99L706.37 0.99Q708.35-0.51 711.42-0.51L711.42-0.51L711.42-0.51Q714.11-0.51 716.16 0.64L716.16 0.64L716.16 0.64Q717.38 1.34 717.95 2.24L717.95 2.24L717.95 2.24Q716.48 3.52 716.48 5.63L716.48 5.63L716.48 5.63Q716.48 8.45 719.04 8.45L719.04 8.45L719.04 8.45Q723.26 8.45 725.70-1.28L725.70-1.28L725.70-1.28Q726.40-4.16 727.04-7.23Z" fill="url(#editing-glowing-gradient)"></path></g></g><style>text {
  font-size: 64px;
  font-family: Arial Black;
  dominant-baseline: central;
  text-anchor: middle;
}</style></svg>